:version	1.10
:name	0101
:units
	mass	kg
	length	m
	angle	deg
:documentation
	fps:30
:root
	axis	XYZ
	order	TX	TY	TZ	RX	RY	RZ
	position	0.00	0.00	0.00
	orientation	0.00	0.00	0.00
:bonedata
	begin
		id	1
		name	Head
		direction	-18.5	116.2	-38.8
		length	123.9
		axis	0.0	0.0	0.0	XYZ
		dof	rx	ry	rz
		limits	(-inf	inf)
			(-inf	inf)
			(-inf	inf)
	end
	begin
		id	2
		name	Neck
		direction	-1.6	89.5	-15.3
		length	90.8
		axis	0.0	0.0	0.0	XYZ
		dof	rx	ry	rz
		limits	(-inf	inf)
			(-inf	inf)
			(-inf	inf)
	end
	begin
		id	3
		name	LeftCollar
		direction	-5.0	276.0	-47.2
		length	280.1
		axis	0.0	0.0	0.0	XYZ
		dof	rx	ry	rz
		limits	(-inf	inf)
			(-inf	inf)
			(-inf	inf)
	end
	begin
		id	4
		name	Torso
		direction	4.0	199.4	8.5
		length	199.7
		axis	0.0	0.0	0.0	XYZ
		dof	rx	ry	rz
		limits	(-inf	inf)
			(-inf	inf)
			(-inf	inf)
	end
	begin
		id	5
		name	LeftShoulder
		direction	170.7	-14.1	-44.7
		length	177.0
		axis	0.0	0.0	0.0	XYZ
		dof	rx	ry	rz
		limits	(-inf	inf)
			(-inf	inf)
			(-inf	inf)
	end
	begin
		id	6
		name	RightShoulder
		direction	-174.2	6.3	52.4
		length	182.0
		axis	0.0	0.0	0.0	XYZ
		dof	rx	ry	rz
		limits	(-inf	inf)
			(-inf	inf)
			(-inf	inf)
	end
	begin
		id	7
		name	LeftElbow
		direction	55.3	-271.7	26.6
		length	278.5
		axis	0.0	0.0	0.0	XYZ
		dof	rx	ry	rz
		limits	(-inf	inf)
			(-inf	inf)
			(-inf	inf)
	end
	begin
		id	8
		name	RightElbow
		direction	-37.0	-268.0	66.2
		length	278.5
		axis	0.0	0.0	0.0	XYZ
		dof	rx	ry	rz
		limits	(-inf	inf)
			(-inf	inf)
			(-inf	inf)
	end
	begin
		id	9
		name	LeftWrist
		direction	69.1	-260.5	-128.7
		length	298.7
		axis	0.0	0.0	0.0	XYZ
		dof	rx	ry	rz
		limits	(-inf	inf)
			(-inf	inf)
			(-inf	inf)
	end
	begin
		id	10
		name	RightWrist
		direction	-79.9	-277.4	-76.9
		length	298.7
		axis	0.0	0.0	0.0	XYZ
		dof	rx	ry	rz
		limits	(-inf	inf)
			(-inf	inf)
			(-inf	inf)
	end
	begin
		id	11
		name	LeftHand
		direction	13.8	-52.1	-25.7
		length	59.7
		axis	0.0	0.0	0.0	XYZ
		dof	rx	ry	rz
		limits	(-inf	inf)
			(-inf	inf)
			(-inf	inf)
	end
	begin
		id	12
		name	RightHand
		direction	-16.0	-55.5	-15.4
		length	59.7
		axis	0.0	0.0	0.0	XYZ
		dof	rx	ry	rz
		limits	(-inf	inf)
			(-inf	inf)
			(-inf	inf)
	end
	begin
		id	13
		name	LeftHip
		direction	117.3	-70.1	12.8
		length	137.3
		axis	0.0	0.0	0.0	XYZ
		dof	rx	ry	rz
		limits	(-inf	inf)
			(-inf	inf)
			(-inf	inf)
	end
	begin
		id	14
		name	RightHip
		direction	-108.5	-76.7	41.0
		length	139.0
		axis	0.0	0.0	0.0	XYZ
		dof	rx	ry	rz
		limits	(-inf	inf)
			(-inf	inf)
			(-inf	inf)
	end
	begin
		id	15
		name	LeftKnee
		direction	-0.2	-428.3	-95.5
		length	438.9
		axis	0.0	0.0	0.0	XYZ
		dof	rx	ry	rz
		limits	(-inf	inf)
			(-inf	inf)
			(-inf	inf)
	end
	begin
		id	16
		name	RightKnee
		direction	16.9	-434.8	-56.9
		length	438.9
		axis	0.0	0.0	0.0	XYZ
		dof	rx	ry	rz
		limits	(-inf	inf)
			(-inf	inf)
			(-inf	inf)
	end
	begin
		id	17
		name	LeftAnkle
		direction	51.1	-389.3	75.6
		length	399.8
		axis	0.0	0.0	0.0	XYZ
		dof	rx	ry	rz
		limits	(-inf	inf)
			(-inf	inf)
			(-inf	inf)
	end
	begin
		id	18
		name	RightAnkle
		direction	-36.9	-388.8	85.6
		length	399.8
		axis	0.0	0.0	0.0	XYZ
		dof	rx	ry	rz
		limits	(-inf	inf)
			(-inf	inf)
			(-inf	inf)
	end
:hierarchy
	begin
		Neck	Head
		LeftCollar	Neck	LeftShoulder	RightShoulder
		Torso	LeftCollar
		root	Torso	LeftHip	RightHip
		LeftShoulder	LeftElbow
		RightShoulder	RightElbow
		LeftElbow	LeftWrist
		RightElbow	RightWrist
		LeftWrist	LeftHand
		RightWrist	RightHand
		LeftHip	LeftKnee
		RightHip	RightKnee
		LeftKnee	LeftAnkle
		RightKnee	RightAnkle
	end

:FULLY-SPECIFIED
:DEGREES
1
Head	-11.09	16.03	-1.85
Neck	-11.09	16.03	-1.85
LeftCollar	-11.09	16.03	-1.85
Torso	-11.09	16.03	-1.85
root	141.43	25.31	2764.41	-0.82	7.02	0.59
LeftShoulder	3.43	-6.13	-77.82
RightShoulder	14.91	14.99	82.08
LeftElbow	3.73	23.98	-75.94
RightElbow	14.90	-14.81	74.24
LeftWrist	3.77	25.32	-75.84
RightWrist	14.94	-15.39	74.09
LeftHand	3.77	25.32	-75.84
RightHand	14.94	-15.39	74.09
LeftHip	10.02	29.12	2.57
RightHip	5.37	-31.20	1.16
LeftKnee	-9.73	29.12	2.57
RightKnee	-12.23	-31.20	1.16
LeftAnkle	-9.73	29.12	2.57
RightAnkle	-12.23	-31.20	1.16
2
Head	-11.09	16.03	-1.85
Neck	-11.09	16.03	-1.85
LeftCollar	-11.09	16.03	-1.85
Torso	-11.09	16.03	-1.85
root	141.43	25.31	2764.41	-0.82	7.02	0.59
LeftShoulder	3.43	-6.13	-77.82
RightShoulder	14.91	14.99	82.08
LeftElbow	3.73	23.98	-75.94
RightElbow	14.90	-14.81	74.24
LeftWrist	3.77	25.32	-75.84
RightWrist	14.94	-15.39	74.09
LeftHand	3.77	25.32	-75.84
RightHand	14.94	-15.39	74.09
LeftHip	10.02	29.12	2.57
RightHip	5.37	-31.20	1.16
LeftKnee	-9.73	29.12	2.57
RightKnee	-12.23	-31.20	1.16
LeftAnkle	-9.73	29.12	2.57
RightAnkle	-12.23	-31.20	1.16
3
Head	-11.09	16.03	-1.85
Neck	-11.09	16.03	-1.85
LeftCollar	-11.09	16.03	-1.85
Torso	-11.09	16.03	-1.85
root	141.43	25.31	2764.41	-0.82	7.02	0.59
LeftShoulder	3.43	-6.13	-77.82
RightShoulder	14.91	14.99	82.08
LeftElbow	3.73	23.98	-75.94
RightElbow	14.90	-14.81	74.24
LeftWrist	3.77	25.32	-75.84
RightWrist	14.94	-15.39	74.09
LeftHand	3.77	25.32	-75.84
RightHand	14.94	-15.39	74.09
LeftHip	10.02	29.12	2.57
RightHip	5.37	-31.20	1.16
LeftKnee	-9.73	29.12	2.57
RightKnee	-12.23	-31.20	1.16
LeftAnkle	-9.73	29.12	2.57
RightAnkle	-12.23	-31.20	1.16
4
Head	-11.09	16.03	-1.85
Neck	-11.09	16.03	-1.85
LeftCollar	-11.09	16.03	-1.85
Torso	-11.09	16.03	-1.85
root	141.43	25.31	2764.41	-0.82	7.02	0.59
LeftShoulder	3.43	-6.13	-77.82
RightShoulder	14.91	14.99	82.08
LeftElbow	3.73	23.98	-75.94
RightElbow	14.90	-14.81	74.24
LeftWrist	3.77	25.32	-75.84
RightWrist	14.94	-15.39	74.09
LeftHand	3.77	25.32	-75.84
RightHand	14.94	-15.39	74.09
LeftHip	10.02	29.12	2.57
RightHip	5.37	-31.20	1.16
LeftKnee	-9.73	29.12	2.57
RightKnee	-12.23	-31.20	1.16
LeftAnkle	-9.73	29.12	2.57
RightAnkle	-12.23	-31.20	1.16
5
Head	-10.90	17.14	-1.71
Neck	-10.90	17.14	-1.71
LeftCollar	-10.90	17.14	-1.71
Torso	-10.90	17.14	-1.71
root	141.41	25.92	2763.88	-1.37	7.01	0.45
LeftShoulder	2.77	-5.61	-77.51
RightShoulder	17.40	15.08	82.33
LeftElbow	3.00	23.37	-76.05
RightElbow	17.36	-14.54	73.18
LeftWrist	3.03	24.56	-75.98
RightWrist	17.40	-15.06	73.02
LeftHand	3.03	24.56	-75.98
RightHand	17.40	-15.06	73.02
LeftHip	9.13	28.26	2.21
RightHip	4.74	-30.23	1.06
LeftKnee	-11.18	28.26	2.21
RightKnee	-11.13	-30.23	1.06
LeftAnkle	-11.18	28.26	2.21
RightAnkle	-11.13	-30.23	1.06
6
Head	-10.90	17.14	-1.71
Neck	-10.90	17.14	-1.71
LeftCollar	-10.90	17.14	-1.71
Torso	-10.90	17.14	-1.71
root	141.41	25.92	2763.88	-1.37	7.01	0.45
LeftShoulder	2.77	-5.61	-77.51
RightShoulder	17.40	15.08	82.33
LeftElbow	3.00	23.37	-76.05
RightElbow	17.36	-14.54	73.18
LeftWrist	3.03	24.56	-75.98
RightWrist	17.40	-15.06	73.02
LeftHand	3.03	24.56	-75.98
RightHand	17.40	-15.06	73.02
LeftHip	9.13	28.26	2.21
RightHip	4.74	-30.23	1.06
LeftKnee	-11.18	28.26	2.21
RightKnee	-11.13	-30.23	1.06
LeftAnkle	-11.18	28.26	2.21
RightAnkle	-11.13	-30.23	1.06
7
Head	-10.90	17.14	-1.71
Neck	-10.90	17.14	-1.71
LeftCollar	-10.90	17.14	-1.71
Torso	-10.90	17.14	-1.71
root	141.41	25.92	2763.88	-1.37	7.01	0.45
LeftShoulder	2.77	-5.61	-77.51
RightShoulder	17.40	15.08	82.33
LeftElbow	3.00	23.37	-76.05
RightElbow	17.36	-14.54	73.18
LeftWrist	3.03	24.56	-75.98
RightWrist	17.40	-15.06	73.02
LeftHand	3.03	24.56	-75.98
RightHand	17.40	-15.06	73.02
LeftHip	9.13	28.26	2.21
RightHip	4.74	-30.23	1.06
LeftKnee	-11.18	28.26	2.21
RightKnee	-11.13	-30.23	1.06
LeftAnkle	-11.18	28.26	2.21
RightAnkle	-11.13	-30.23	1.06
8
Head	-10.90	17.14	-1.71
Neck	-10.90	17.14	-1.71
LeftCollar	-10.90	17.14	-1.71
Torso	-10.90	17.14	-1.71
root	141.41	25.92	2763.88	-1.37	7.01	0.45
LeftShoulder	2.77	-5.61	-77.51
RightShoulder	17.40	15.08	82.33
LeftElbow	3.00	23.37	-76.05
RightElbow	17.36	-14.54	73.18
LeftWrist	3.03	24.56	-75.98
RightWrist	17.40	-15.06	73.02
LeftHand	3.03	24.56	-75.98
RightHand	17.40	-15.06	73.02
LeftHip	9.13	28.26	2.21
RightHip	4.74	-30.23	1.06
LeftKnee	-11.18	28.26	2.21
RightKnee	-11.13	-30.23	1.06
LeftAnkle	-11.18	28.26	2.21
RightAnkle	-11.13	-30.23	1.06
9
Head	-10.90	17.14	-1.71
Neck	-10.90	17.14	-1.71
LeftCollar	-10.90	17.14	-1.71
Torso	-10.90	17.14	-1.71
root	141.41	25.92	2763.88	-1.37	7.01	0.45
LeftShoulder	2.77	-5.61	-77.51
RightShoulder	17.40	15.08	82.33
LeftElbow	3.00	23.37	-76.05
RightElbow	17.36	-14.54	73.18
LeftWrist	3.03	24.56	-75.98
RightWrist	17.40	-15.06	73.02
LeftHand	3.03	24.56	-75.98
RightHand	17.40	-15.06	73.02
LeftHip	9.13	28.26	2.21
RightHip	4.74	-30.23	1.06
LeftKnee	-11.18	28.26	2.21
RightKnee	-11.13	-30.23	1.06
LeftAnkle	-11.18	28.26	2.21
RightAnkle	-11.13	-30.23	1.06
10
Head	-10.90	17.14	-1.71
Neck	-10.90	17.14	-1.71
LeftCollar	-10.90	17.14	-1.71
Torso	-10.90	17.14	-1.71
root	141.41	25.92	2763.88	-1.37	7.01	0.45
LeftShoulder	2.77	-5.61	-77.51
RightShoulder	17.40	15.08	82.33
LeftElbow	3.00	23.37	-76.05
RightElbow	17.36	-14.54	73.18
LeftWrist	3.03	24.56	-75.98
RightWrist	17.40	-15.06	73.02
LeftHand	3.03	24.56	-75.98
RightHand	17.40	-15.06	73.02
LeftHip	9.13	28.26	2.21
RightHip	4.74	-30.23	1.06
LeftKnee	-11.18	28.26	2.21
RightKnee	-11.13	-30.23	1.06
LeftAnkle	-11.18	28.26	2.21
RightAnkle	-11.13	-30.23	1.06
11
Head	-10.92	17.19	-1.73
Neck	-10.92	17.19	-1.73
LeftCollar	-10.92	17.19	-1.73
Torso	-10.92	17.19	-1.73
root	141.41	26.26	2763.76	-1.45	7.09	0.47
LeftShoulder	2.68	-5.55	-77.49
RightShoulder	17.78	15.05	82.46
LeftElbow	2.90	23.19	-76.09
RightElbow	17.74	-14.56	73.10
LeftWrist	2.93	24.33	-76.02
RightWrist	17.78	-15.04	72.94
LeftHand	2.93	24.33	-76.02
RightHand	17.78	-15.04	72.94
LeftHip	8.96	27.88	2.02
RightHip	4.63	-29.65	1.16
LeftKnee	-11.89	27.88	2.02
RightKnee	-11.61	-29.65	1.16
LeftAnkle	-11.89	27.88	2.02
RightAnkle	-11.61	-29.65	1.16
12
Head	-10.97	17.19	-1.75
Neck	-10.97	17.19	-1.75
LeftCollar	-10.97	17.19	-1.75
Torso	-10.97	17.19	-1.75
root	141.32	22.21	2763.51	-2.09	7.23	0.30
LeftShoulder	2.66	-5.56	-77.49
RightShoulder	17.65	14.96	82.66
LeftElbow	2.88	23.09	-76.10
RightElbow	17.62	-14.57	73.40
LeftWrist	2.91	24.23	-76.04
RightWrist	17.66	-15.01	73.25
LeftHand	2.91	24.23	-76.04
RightHand	17.66	-15.01	73.25
LeftHip	7.72	27.87	1.96
RightHip	3.71	-29.27	1.02
LeftKnee	-11.72	27.87	1.96
RightKnee	-10.76	-29.27	1.02
LeftAnkle	-11.72	27.87	1.96
RightAnkle	-10.76	-29.27	1.02
13
Head	-10.99	17.22	-1.78
Neck	-10.99	17.22	-1.78
LeftCollar	-10.99	17.22	-1.78
Torso	-10.99	17.22	-1.78
root	141.26	19.00	2763.27	-1.87	7.19	0.43
LeftShoulder	2.75	-5.56	-77.52
RightShoulder	16.66	14.69	83.04
LeftElbow	2.98	23.02	-76.09
RightElbow	16.67	-14.80	74.32
LeftWrist	3.00	24.16	-76.03
RightWrist	16.70	-15.21	74.19
LeftHand	3.00	24.16	-76.03
RightHand	16.70	-15.21	74.19
LeftHip	8.50	27.43	2.13
RightHip	3.71	-29.04	0.98
LeftKnee	-12.34	27.43	2.13
RightKnee	-11.07	-29.04	0.98
LeftAnkle	-12.34	27.43	2.13
RightAnkle	-11.07	-29.04	0.98
14
Head	-10.99	17.22	-1.78
Neck	-10.99	17.22	-1.78
LeftCollar	-10.99	17.22	-1.78
Torso	-10.99	17.22	-1.78
root	141.26	19.00	2763.27	-1.87	7.19	0.43
LeftShoulder	2.75	-5.56	-77.52
RightShoulder	16.66	14.69	83.04
LeftElbow	2.98	23.02	-76.09
RightElbow	16.67	-14.80	74.32
LeftWrist	3.00	24.16	-76.03
RightWrist	16.70	-15.21	74.19
LeftHand	3.00	24.16	-76.03
RightHand	16.70	-15.21	74.19
LeftHip	8.50	27.43	2.13
RightHip	3.71	-29.04	0.98
LeftKnee	-12.34	27.43	2.13
RightKnee	-11.07	-29.04	0.98
LeftAnkle	-12.34	27.43	2.13
RightAnkle	-11.07	-29.04	0.98
15
Head	-11.05	17.25	-1.83
Neck	-11.05	17.25	-1.83
LeftCollar	-11.05	17.25	-1.83
Torso	-11.05	17.25	-1.83
root	141.21	16.52	2763.09	-1.83	7.00	0.39
LeftShoulder	2.78	-5.58	-77.53
RightShoulder	14.74	14.36	83.51
LeftElbow	3.01	23.04	-76.08
RightElbow	14.81	-15.32	75.78
LeftWrist	3.04	24.19	-76.01
RightWrist	14.84	-15.71	75.67
LeftHand	3.04	24.19	-76.01
RightHand	14.84	-15.71	75.67
LeftHip	9.02	26.74	2.29
RightHip	3.93	-28.82	1.03
LeftKnee	-12.81	26.74	2.29
RightKnee	-12.38	-28.82	1.03
LeftAnkle	-12.81	26.74	2.29
RightAnkle	-12.38	-28.82	1.03
16
Head	-11.05	17.25	-1.83
Neck	-11.05	17.25	-1.83
LeftCollar	-11.05	17.25	-1.83
Torso	-11.05	17.25	-1.83
root	141.21	16.52	2763.09	-1.83	7.00	0.39
LeftShoulder	2.78	-5.58	-77.53
RightShoulder	14.74	14.36	83.51
LeftElbow	3.01	23.04	-76.08
RightElbow	14.81	-15.32	75.78
LeftWrist	3.04	24.19	-76.01
RightWrist	14.84	-15.71	75.67
LeftHand	3.04	24.19	-76.01
RightHand	14.84	-15.71	75.67
LeftHip	9.02	26.74	2.29
RightHip	3.93	-28.82	1.03
LeftKnee	-12.81	26.74	2.29
RightKnee	-12.38	-28.82	1.03
LeftAnkle	-12.81	26.74	2.29
RightAnkle	-12.38	-28.82	1.03
17
Head	-11.05	17.25	-1.83
Neck	-11.05	17.25	-1.83
LeftCollar	-11.05	17.25	-1.83
Torso	-11.05	17.25	-1.83
root	141.21	16.52	2763.09	-1.83	7.00	0.39
LeftShoulder	2.78	-5.58	-77.53
RightShoulder	14.74	14.36	83.51
LeftElbow	3.01	23.04	-76.08
RightElbow	14.81	-15.32	75.78
LeftWrist	3.04	24.19	-76.01
RightWrist	14.84	-15.71	75.67
LeftHand	3.04	24.19	-76.01
RightHand	14.84	-15.71	75.67
LeftHip	9.02	26.74	2.29
RightHip	3.93	-28.82	1.03
LeftKnee	-12.81	26.74	2.29
RightKnee	-12.38	-28.82	1.03
LeftAnkle	-12.81	26.74	2.29
RightAnkle	-12.38	-28.82	1.03
18
Head	-11.12	17.24	-1.89
Neck	-11.12	17.24	-1.89
LeftCollar	-11.12	17.24	-1.89
Torso	-11.12	17.24	-1.89
root	141.17	14.58	2762.92	-1.91	7.09	0.33
LeftShoulder	2.87	-5.62	-77.57
RightShoulder	13.83	14.49	83.14
LeftElbow	3.11	23.12	-76.07
RightElbow	13.89	-15.41	75.86
LeftWrist	3.14	24.30	-76.00
RightWrist	13.92	-15.80	75.76
LeftHand	3.14	24.30	-76.00
RightHand	13.92	-15.80	75.76
LeftHip	9.39	26.25	2.40
RightHip	4.07	-28.03	1.16
LeftKnee	-13.20	26.25	2.40
RightKnee	-14.24	-28.03	1.16
LeftAnkle	-13.20	26.25	2.40
RightAnkle	-14.24	-28.03	1.16
